<?xml version="1.0" encoding="UTF-8"?>
<!DOCTYPE svg PUBLIC "-//W3C//DTD SVG 1.1//EN" "http://www.w3.org/Graphics/SVG/1.1/DTD/svg11.dtd">
<svg xmlns="http://www.w3.org/2000/svg" version="1.1" width="3368px" height="2382px" style="shape-rendering:geometricPrecision; text-rendering:geometricPrecision; image-rendering:optimizeQuality; fill-rule:evenodd; clip-rule:evenodd" xmlns:xlink="http://www.w3.org/1999/xlink">
<g><path style="opacity:0.991" fill="#fefffe" d="M 224.5,897.5 C 253.336,896.17 282.336,896.17 311.5,897.5C 352.584,939.404 391.251,983.237 427.5,1029C 418.173,1029.5 408.839,1029.67 399.5,1029.5C 399.5,1059.5 399.5,1089.5 399.5,1119.5C 429.642,1119.96 459.642,1119.46 489.5,1118C 510.891,1150.25 530.891,1183.41 549.5,1217.5C 516.254,1222.86 484.254,1232.36 453.5,1246C 349.418,1292.25 268.418,1364.41 210.5,1462.5C 201.682,1436.24 196.515,1409.24 195,1381.5C 192.008,1323.42 197.342,1266.08 211,1209.5C 219.915,1171.42 231.248,1134.09 245,1097.5C 258.998,1064.5 272.164,1031.17 284.5,997.5C 264.836,963.865 244.836,930.532 224.5,897.5 Z"/></g>
<g><path style="opacity:0.99" fill="#fefffe" d="M 328.5,896.5 C 377.834,896.333 427.168,896.5 476.5,897C 520.701,897.544 561.368,909.544 598.5,933C 636.281,960.852 657.114,998.352 661,1045.5C 668.359,1124.85 636.525,1181.85 565.5,1216.5C 546.261,1180.34 525.261,1145.34 502.5,1111.5C 519.645,1099.91 526.145,1083.91 522,1063.5C 515.736,1043.92 502.236,1033.09 481.5,1031C 469.171,1030.12 456.838,1029.28 444.5,1028.5C 432.907,1013.65 421.073,998.984 409,984.5C 382.307,954.977 355.474,925.643 328.5,896.5 Z"/></g>
<g><path style="opacity:0.993" fill="#fefffe" d="M 1420.5,896.5 C 1465.5,896.5 1510.5,896.5 1555.5,896.5C 1555.5,929.167 1555.5,961.833 1555.5,994.5C 1584.83,994.5 1614.17,994.5 1643.5,994.5C 1643.5,1031.17 1643.5,1067.83 1643.5,1104.5C 1614.17,1104.5 1584.83,1104.5 1555.5,1104.5C 1555.33,1151.5 1555.5,1198.5 1556,1245.5C 1557.3,1256.95 1563.14,1265.12 1573.5,1270C 1579.38,1271.78 1585.38,1272.95 1591.5,1273.5C 1609.3,1272.13 1626.3,1267.8 1642.5,1260.5C 1642.67,1296.17 1642.5,1331.83 1642,1367.5C 1622.32,1378.72 1601.15,1385.55 1578.5,1388C 1546.08,1392.4 1514.42,1389.4 1483.5,1379C 1448.58,1363.04 1428.41,1335.88 1423,1297.5C 1422.14,1291.86 1421.47,1286.19 1421,1280.5C 1420.5,1221.83 1420.33,1163.17 1420.5,1104.5C 1405.5,1104.5 1390.5,1104.5 1375.5,1104.5C 1375.5,1067.83 1375.5,1031.17 1375.5,994.5C 1390.5,994.5 1405.5,994.5 1420.5,994.5C 1420.5,961.833 1420.5,929.167 1420.5,896.5 Z"/></g>
<g><path style="opacity:0.993" fill="#fefffe" d="M 1167.5,923.5 C 1214.17,923.5 1260.83,923.5 1307.5,923.5C 1307.5,953.167 1307.5,982.833 1307.5,1012.5C 1260.83,1012.5 1214.17,1012.5 1167.5,1012.5C 1167.5,982.833 1167.5,953.167 1167.5,923.5 Z"/></g>
<g><path style="opacity:0.99" fill="#fefffe" d="M 903.5,989.5 C 950.023,988.179 992.023,1001.01 1029.5,1028C 1067.24,1060.97 1089.74,1102.47 1097,1152.5C 1100.3,1176.73 1101.3,1201.06 1100,1225.5C 1015.38,1227.5 930.546,1228.16 845.5,1227.5C 857.294,1268.1 884.461,1288.44 927,1288.5C 946.984,1288.55 965.484,1283.38 982.5,1273C 992.874,1266.3 1002.37,1258.47 1011,1249.5C 1036.48,1269.65 1061.31,1290.49 1085.5,1312C 1048.78,1358.87 1000.44,1384.54 940.5,1389C 887.233,1393.77 838.233,1381.77 793.5,1353C 750.226,1320.66 724.726,1277.49 717,1223.5C 708.021,1158.38 724.354,1100.72 766,1050.5C 803.486,1011.51 849.319,991.177 903.5,989.5 Z M 901.5,1089.5 C 938.14,1088.74 961.306,1106.08 971,1141.5C 972.173,1146.71 973.34,1151.87 974.5,1157C 930.835,1157.5 887.168,1157.67 843.5,1157.5C 846.453,1131.73 858.453,1111.57 879.5,1097C 886.578,1093.36 893.911,1090.86 901.5,1089.5 Z"/></g>
<g><path style="opacity:0.992" fill="#fefffe" d="M 2302.5,989.5 C 2368.35,988.856 2423.85,1012.19 2469,1059.5C 2509.24,1107.77 2524.24,1163.1 2514,1225.5C 2494.82,1308.02 2444.32,1360.52 2362.5,1383C 2304.67,1396.62 2249.34,1389.95 2196.5,1363C 2122.68,1318.54 2089.18,1253.04 2096,1166.5C 2107.64,1093.37 2146.8,1040.87 2213.5,1009C 2242.08,996.921 2271.74,990.421 2302.5,989.5 Z M 2295.5,1104.5 C 2337.4,1103.02 2365.9,1121.68 2381,1160.5C 2390.59,1192.42 2385.59,1221.76 2366,1248.5C 2340.38,1274.96 2310.21,1281.79 2275.5,1269C 2247.87,1255.35 2231.7,1233.18 2227,1202.5C 2222.76,1169.53 2232.93,1142.03 2257.5,1120C 2268.99,1111.78 2281.66,1106.62 2295.5,1104.5 Z"/></g>
<g><path style="opacity:0.991" fill="#fefffe" d="M 1884.5,990.5 C 1931.31,986.538 1974.64,996.705 2014.5,1021C 2035.63,1035.8 2052.97,1054.13 2066.5,1076C 2036.09,1098.96 2005.59,1121.79 1975,1144.5C 1964.98,1130.48 1952.48,1119.31 1937.5,1111C 1901.08,1096.56 1870.58,1104.4 1846,1134.5C 1826.32,1167.02 1824.32,1200.69 1840,1235.5C 1859.58,1268.86 1888.41,1281.36 1926.5,1273C 1936.17,1270 1945.17,1265.66 1953.5,1260C 1961.98,1252.35 1970.32,1244.52 1978.5,1236.5C 2008.85,1257.68 2038.85,1279.34 2068.5,1301.5C 2035.06,1352.7 1987.73,1381.53 1926.5,1388C 1853.71,1396.08 1792.87,1373.25 1744,1319.5C 1700.52,1263.64 1687.85,1201.31 1706,1132.5C 1728.44,1063.73 1774.27,1018.9 1843.5,998C 1857.15,994.616 1870.82,992.116 1884.5,990.5 Z"/></g>
<g><path style="opacity:0.993" fill="#fefffe" d="M 2802.5,999.5 C 2842.22,995.025 2877.22,1005.53 2907.5,1031C 2916.21,1039.71 2923.38,1049.55 2929,1060.5C 2979.05,1003.27 3040.55,986.107 3113.5,1009C 3148.49,1024.33 3170.99,1050.5 3181,1087.5C 3183.31,1096.04 3184.98,1104.71 3186,1113.5C 3187.47,1205.48 3187.97,1297.48 3187.5,1389.5C 3142.5,1389.5 3097.5,1389.5 3052.5,1389.5C 3052.98,1314.47 3052.48,1239.47 3051,1164.5C 3042.61,1127.49 3019.77,1113.32 2982.5,1122C 2962.93,1129.57 2951.43,1143.74 2948,1164.5C 2946.52,1239.47 2946.02,1314.47 2946.5,1389.5C 2901.5,1389.5 2856.5,1389.5 2811.5,1389.5C 2811.98,1314.47 2811.48,1239.47 2810,1164.5C 2801.61,1127.49 2778.77,1113.32 2741.5,1122C 2722.89,1129.68 2711.72,1143.51 2708,1163.5C 2706.52,1238.8 2706.02,1314.14 2706.5,1389.5C 2661.5,1389.5 2616.5,1389.5 2571.5,1389.5C 2571.5,1262.17 2571.5,1134.83 2571.5,1007.5C 2616.5,1007.5 2661.5,1007.5 2706.5,1007.5C 2706.33,1024.17 2706.5,1040.84 2707,1057.5C 2731.03,1025.24 2762.86,1005.91 2802.5,999.5 Z"/></g>
<g><path style="opacity:0.993" fill="#fefffe" d="M 1170.5,1037.5 C 1215.5,1037.5 1260.5,1037.5 1305.5,1037.5C 1305.5,1154.83 1305.5,1272.17 1305.5,1389.5C 1260.5,1389.5 1215.5,1389.5 1170.5,1389.5C 1170.5,1272.17 1170.5,1154.83 1170.5,1037.5 Z"/></g>
<g><path style="opacity:0.989" fill="#fefffe" d="M 546.5,1233.5 C 553.841,1233.33 561.174,1233.5 568.5,1234C 604.833,1285.67 641.167,1337.33 677.5,1389C 624.83,1389.83 572.164,1389.67 519.5,1388.5C 495.5,1348.5 471.5,1308.5 447.5,1268.5C 478.092,1249.86 511.092,1238.19 546.5,1233.5 Z"/></g>
</svg>
